<svg width="360" height="212" viewBox="0 0 360 212" fill="none" xmlns="http://www.w3.org/2000/svg">
<path d="M-59.1616 1.24285C-22.8867 -2.85775 -2.06805 45.7191 24.7438 90.5107C52.154 136.302 94.4548 177.886 146.817 194.604C199.179 211.322 313.997 206.906 381.5 228.986" stroke="#75E6BD" stroke-opacity="0.75"/>
<path d="M-69.8862 11.5795C-33.6113 7.47892 -12.7927 56.0557 14.0192 100.847C41.4294 146.639 83.7302 188.223 136.092 204.941C188.454 221.659 303.272 217.243 370.775 239.323" stroke="#75E6BD" stroke-opacity="0.75"/>
<path d="M-75.564 19.7809C-39.289 15.6803 -18.4704 64.2571 8.3415 109.049C35.7517 154.84 78.0524 196.424 130.414 213.142C182.777 229.86 297.595 225.444 365.097 247.524" stroke="#75E6BD" stroke-opacity="0.75"/>
<path d="M-109 46.9081C-72.7251 42.8075 -51.9064 91.3843 -25.0945 136.176C2.31566 181.967 44.6164 223.551 96.9784 240.269C149.341 256.987 264.159 252.571 331.661 274.652" stroke="#75E6BD" stroke-opacity="0.75"/>
</svg>
