<svg width="16" height="16" viewBox="0 0 16 16" fill="none" xmlns="http://www.w3.org/2000/svg">
<path d="M6.69043 2.03418C7.26042 2.03418 7.74463 2.32471 8.14307 2.90576C8.17074 2.85042 8.23991 2.76188 8.35059 2.64014C8.46126 2.51286 8.56641 2.41048 8.66602 2.33301C8.94824 2.13379 9.23047 2.03418 9.5127 2.03418C9.79492 2.03418 10.008 2.07568 10.1519 2.15869C10.2957 2.2417 10.3787 2.32194 10.4009 2.39941L10.4341 2.52393C10.0578 2.88363 9.79492 3.27653 9.64551 3.70264C9.50163 4.12321 9.42969 4.67106 9.42969 5.34619C9.42969 6.01579 9.46012 6.55811 9.521 6.97314C9.58187 7.38265 9.65658 7.68148 9.74512 7.86963C9.83366 8.05778 9.9222 8.20443 10.0107 8.30957C10.1048 8.41471 10.1823 8.49495 10.2432 8.55029C10.304 8.60563 10.3345 8.66097 10.3345 8.71631C10.3345 8.76611 10.304 8.82145 10.2432 8.88232C10.1823 8.9432 10.1048 9.03451 10.0107 9.15625C9.9222 9.27246 9.83366 9.42741 9.74512 9.62109C9.53483 10.0915 9.42969 10.7832 9.42969 11.6963C9.42969 12.6038 9.50163 13.279 9.64551 13.7217C9.79492 14.1589 10.0578 14.5573 10.4341 14.917C10.4341 15.1217 10.2819 15.2712 9.97754 15.3652C9.85579 15.3984 9.68701 15.415 9.47119 15.415C9.2609 15.415 9.03678 15.3348 8.79883 15.1743C8.56641 15.0138 8.40039 14.8561 8.30078 14.7012L8.14307 14.4604C7.90511 14.8589 7.58691 15.1439 7.18848 15.3154C7.02799 15.3818 6.84261 15.415 6.63232 15.415C6.42757 15.415 6.25049 15.3735 6.10107 15.2905C5.95719 15.2075 5.87142 15.1245 5.84375 15.0415L5.81055 14.917C6.18685 14.5573 6.44694 14.1589 6.59082 13.7217C6.74023 13.279 6.81494 12.8058 6.81494 12.3022C6.81494 11.7931 6.81217 11.4749 6.80664 11.3477C6.80664 11.2148 6.80111 11.0571 6.79004 10.8745C6.78451 10.6919 6.77344 10.5535 6.75684 10.4595C6.74023 10.3654 6.71533 10.2547 6.68213 10.1274C6.65446 10.0002 6.61572 9.90609 6.56592 9.84521C6.52165 9.77881 6.46354 9.70964 6.3916 9.6377C6.3252 9.56576 6.24772 9.51318 6.15918 9.47998C5.94336 9.40251 5.72754 9.36377 5.51172 9.36377C5.2959 9.36377 5.12435 9.37484 4.99707 9.39697C4.86979 9.41911 4.75911 9.46061 4.66504 9.52148C4.5765 9.58236 4.49902 9.64323 4.43262 9.7041C4.36621 9.76497 4.31087 9.86182 4.2666 9.99463C4.22786 10.1219 4.19466 10.2354 4.16699 10.335C4.14486 10.4346 4.12826 10.584 4.11719 10.7832C4.10059 11.0765 4.09229 11.5303 4.09229 12.1445C4.09229 12.7588 4.16423 13.2845 4.30811 13.7217C4.45752 14.1589 4.72038 14.5573 5.09668 14.917C5.09668 15.1162 4.94173 15.2656 4.63184 15.3652C4.51562 15.3984 4.34961 15.415 4.13379 15.415C3.9235 15.415 3.69661 15.3348 3.45312 15.1743C3.21517 15.0138 3.04362 14.8561 2.93848 14.7012L2.77246 14.4604C2.75033 14.5158 2.68392 14.6126 2.57324 14.751C2.46257 14.8893 2.35742 15 2.25781 15.083C1.98112 15.3044 1.70166 15.415 1.41943 15.415C1.14274 15.415 0.929688 15.3735 0.780273 15.2905C0.636393 15.2075 0.553385 15.1245 0.53125 15.0415L0.489746 14.917C0.866048 14.5573 1.12614 14.1589 1.27002 13.7217C1.41943 13.279 1.49414 12.7311 1.49414 12.0781C1.49414 11.4251 1.4637 10.9022 1.40283 10.5093C1.34196 10.1164 1.26725 9.82308 1.17871 9.62939C1.09017 9.43018 0.998861 9.27246 0.904785 9.15625C0.816243 9.03451 0.741536 8.9432 0.680664 8.88232C0.619792 8.82145 0.589355 8.76611 0.589355 8.71631C0.589355 8.66097 0.619792 8.60563 0.680664 8.55029C0.741536 8.49495 0.816243 8.41471 0.904785 8.30957C0.998861 8.20443 1.09017 8.05778 1.17871 7.86963C1.389 7.42139 1.49414 6.72135 1.49414 5.76953C1.49414 4.81217 1.41943 4.12321 1.27002 3.70264C1.12614 3.27653 0.866048 2.88363 0.489746 2.52393C0.489746 2.33024 0.644694 2.18359 0.95459 2.08398C1.0708 2.05078 1.20915 2.03418 1.36963 2.03418C1.93408 2.03418 2.40169 2.32471 2.77246 2.90576C3.20964 2.32471 3.69385 2.03418 4.2251 2.03418C4.47412 2.03418 4.67057 2.07568 4.81445 2.15869C4.95833 2.2417 5.04134 2.32194 5.06348 2.39941L5.09668 2.52393C4.72038 2.88363 4.45752 3.27653 4.30811 3.70264C4.16423 4.12321 4.09229 4.71257 4.09229 5.4707V5.72803C4.09229 6.66325 4.15316 7.23324 4.2749 7.43799C4.38005 7.62061 4.47135 7.73405 4.54883 7.77832C4.6263 7.81706 4.70654 7.85303 4.78955 7.88623C4.93343 7.94157 5.12435 7.96924 5.3623 7.96924C5.60026 7.96924 5.79118 7.9554 5.93506 7.92773C6.07894 7.89453 6.20068 7.85579 6.30029 7.81152C6.3999 7.76172 6.48014 7.68424 6.54102 7.5791C6.60742 7.46842 6.65999 7.36605 6.69873 7.27197C6.73747 7.1779 6.76514 7.03402 6.78174 6.84033C6.80387 6.55811 6.81494 6.16797 6.81494 5.66992V5.4707C6.81494 4.71257 6.74023 4.12321 6.59082 3.70264C6.44694 3.27653 6.18685 2.88363 5.81055 2.52393C5.81055 2.33024 5.96826 2.18359 6.28369 2.08398C6.3999 2.05078 6.53548 2.03418 6.69043 2.03418ZM12.2603 4.12598C12.7417 4.12598 13.1567 4.33903 13.5054 4.76514C13.6769 4.51058 13.9508 4.31966 14.3271 4.19238C14.4655 4.14811 14.6066 4.12598 14.7505 4.12598C14.8944 4.12598 15.0189 4.14258 15.124 4.17578C15.2292 4.20345 15.3066 4.23942 15.3564 4.28369C15.4671 4.37223 15.5308 4.46908 15.5474 4.57422C15.1987 4.91178 14.958 5.26595 14.8252 5.63672C14.6979 6.00749 14.6343 6.49447 14.6343 7.09766C14.6343 7.70085 14.6619 8.17676 14.7173 8.52539C14.7726 8.86849 14.8418 9.11751 14.9248 9.27246C15.0078 9.42188 15.0881 9.53532 15.1655 9.61279C15.2485 9.69027 15.3177 9.75114 15.373 9.79541C15.4284 9.83415 15.4561 9.87565 15.4561 9.91992C15.4561 9.95866 15.4284 10.0002 15.373 10.0444C15.3177 10.0832 15.2485 10.1468 15.1655 10.2354C15.0881 10.3239 15.0078 10.4429 14.9248 10.5923C14.7311 10.9409 14.6343 11.4915 14.6343 12.2441C14.6343 12.9967 14.7007 13.564 14.8335 13.9458C14.9663 14.3221 15.2043 14.6652 15.5474 14.9751C15.5474 15.1522 15.4062 15.285 15.124 15.3735C15.0189 15.4067 14.8722 15.4233 14.6841 15.4233C14.4959 15.4233 14.2967 15.368 14.0864 15.2573C13.8817 15.1522 13.735 15.047 13.6465 14.9419L13.5054 14.7842C13.3338 15.0387 13.0599 15.2269 12.6836 15.3486C12.5452 15.3984 12.3848 15.4233 12.2021 15.4233C12.0195 15.4233 11.8618 15.3846 11.729 15.3071C11.5962 15.2352 11.5187 15.1605 11.4966 15.083L11.4634 14.9751C11.8065 14.6652 12.0444 14.3221 12.1772 13.9458C12.3101 13.564 12.3765 13.1019 12.3765 12.5596C12.3765 12.0173 12.3488 11.5911 12.2935 11.2812C12.2381 10.9714 12.1689 10.7417 12.0859 10.5923C12.0085 10.4429 11.9282 10.3239 11.8452 10.2354C11.7622 10.1468 11.693 10.0832 11.6377 10.0444C11.5824 10.0002 11.5547 9.95866 11.5547 9.91992C11.5547 9.87565 11.5824 9.83415 11.6377 9.79541C11.693 9.75114 11.7622 9.69027 11.8452 9.61279C11.9282 9.53532 12.0085 9.42188 12.0859 9.27246C12.2796 8.90723 12.3765 8.30404 12.3765 7.46289C12.3765 6.62174 12.3101 6.01579 12.1772 5.64502C12.05 5.27425 11.812 4.91732 11.4634 4.57422C11.4634 4.39714 11.6045 4.26432 11.8867 4.17578C11.9919 4.14258 12.1164 4.12598 12.2603 4.12598ZM13.4888 0.44043L15.2319 1.96777L13.4805 3.54492L13.0405 3.16309C12.7472 2.91406 12.4567 2.66227 12.1689 2.40771L11.729 2.02588C11.729 1.99268 12.0085 1.72152 12.5674 1.2124C13.1318 0.697754 13.439 0.44043 13.4888 0.44043Z" fill="white"/>
</svg>
